<?xml version="1.0" standalone="no"?>
<!DOCTYPE svg PUBLIC "-//W3C//DTD SVG 20010904//EN"
 "http://www.w3.org/TR/2001/REC-SVG-20010904/DTD/svg10.dtd">
<svg version="1.0" xmlns="http://www.w3.org/2000/svg"
 width="260.000000pt" height="260.000000pt" viewBox="0 0 260.000000 260.000000"
 preserveAspectRatio="xMidYMid meet">
<metadata>
Created by potrace 1.11, written by Peter Selinger 2001-2013
</metadata>
<g transform="translate(0.000000,260.000000) scale(0.100000,-0.100000)"
fill="#000000" stroke="none">
<path d="M1267 2374 c-1 -1 -20 -4 -42 -7 -158 -21 -287 -140 -325 -300 -62
-262 123 -497 390 -497 122 0 215 40 298 130 62 66 90 132 106 247 6 45 -19
158 -46 212 -44 85 -138 163 -243 199 -27 10 -131 22 -138 16z"/>
<path d="M324 1578 c-46 -10 -80 -41 -93 -85 -5 -16 -8 -245 -7 -509 1 -447 2
-482 19 -508 26 -38 66 -52 177 -61 118 -9 154 -12 205 -19 167 -25 308 -60
433 -110 113 -45 129 -47 156 -20 14 14 16 77 16 547 0 293 -4 537 -8 543 -28
43 -229 126 -387 160 -143 31 -158 34 -355 54 -52 5 -99 11 -105 13 -5 2 -28
0 -51 -5z"/>
<path d="M2228 1585 c-2 -2 -60 -9 -128 -15 -69 -6 -138 -13 -155 -16 -16 -3
-43 -7 -60 -9 -43 -5 -72 -12 -185 -39 -54 -13 -106 -29 -115 -34 -5 -4 -15
-7 -22 -8 -25 -4 -166 -73 -188 -93 l-25 -21 0 -529 c0 -291 3 -537 6 -546 15
-37 50 -37 147 1 90 36 233 79 292 89 17 3 53 10 80 15 28 6 70 13 95 15 25 3
59 7 75 9 17 3 68 8 115 11 111 8 145 20 172 58 l23 32 0 497 c0 485 0 497
-21 524 -18 25 -97 68 -106 59z"/>
</g>
</svg>
